<svg xmlns="http://www.w3.org/2000/svg" width="512" height="512" viewBox="0 0 512 512"><path d="M155 512c-1.1-2.4-3-4.8-3.3-7.3-.5-4.9-.2-10-.1-15 .1-3.8 2.1-5.8 6-5.8h11.6v-80.2c0-8.1 1.4-9.5 9.7-9.5h15.8v-10.6c0-4.6 2.3-6.9 6.8-6.6 3.4.3 5.4-1.1 7.3-3.8 8.2-11.5 13.6-24.2 16.2-37.8 4-21.2 6.9-42.6 10.3-63.7-17.1-7.1-16.8-20.7-8-29.3-4.2-3.2-8.7-6.1-12.6-9.8-5.2-4.9-10.3-10-14.6-15.7-3.7-4.9-7.8-7.8-13.9-9.3-26.1-6.3-49.9-17.3-70.1-35.4-23-20.5-36.2-46.5-42.9-76.1C68.7 76 67.6 55.6 67.9 35c.1-5.9 1.5-7.4 7.4-7.5 19.5-.1 39-.1 58.5 0 6.4 0 7.9 1.6 8 8 0 2.5-.3 5.1.2 7.5.7 2.9 2.1 5.6 3.2 8.4.5-.1 1-.2 1.5-.4 0-1.8.1-3.7 0-5.5-.5-12.6-1.2-25.3-1.6-37.9-.2-5.9 1.7-7.7 7.7-7.7h206.5c6 0 7.9 1.8 7.7 7.7-.4 12.7-1 25.3-1.6 37.9-.1 1.8-.2 3.6-.3 6 4.3-2.6 5.4-6.1 5.2-10-.7-17.1 3.3-13.9 14.6-14 17-.1 34-.1 51 0 7.2 0 8.3 1.2 8.4 8.5.3 28.3-2.1 56.2-12.2 83-12.9 34.2-35.9 59.4-68.8 74.9-13.1 6.2-27.5 9.9-41.2 14.9-2.6 1-5.5 2.5-7.1 4.6-8.5 11.3-18.2 21.1-30.4 28.6 9 8.8 9.3 22.4-7.2 29.2 3.9 27.8 4.6 56.4 15.7 82.9 2.8 6.7 7 12.8 10.5 19.2 1.4 2.7 3.5 3.5 6.5 3.4 5.6-.1 7.1 1.6 7.3 7 .1 3.1 0 6.3 0 10.1h15.8c8.2 0 9.7 1.4 9.7 9.5v80.2H354c4.4-.1 6.5 2.1 6.5 6.4 0 5 .4 10-.1 15-.2 2.3-2.1 4.5-3.3 6.8-67.4.3-134.8.3-202.1.3zm1.1-500.8c-.1 1.1-.2 1.9-.1 2.7.8 48.1 7.1 95.3 23.3 140.8 8.5 23.9 19.4 46.8 37.5 65.3 10 10.2 21.4 18.1 36.3 19.1 17.5 1.2 30.8-7.4 42.2-19.2 18.3-18.8 29-42 37.7-66.3 12.8-35.7 19-72.7 21.7-110.4.8-10.6 1-21.2 1.5-32.1-66.9.1-133.2.1-200.1.1zm24.3 472.4h151.2v-78.1H180.4v78.1zM337.6 173c54.3-18.9 75.8-66.8 75.9-115.9-4.1 0-8.3.2-12.4-.1-3-.2-4.3 1.1-5.6 3.6-5.9 12-15.5 19.6-28.5 22.1-5 1-6.1 3.2-7.1 7.5-4 18.2-8.1 36.3-12.8 54.4-2.4 9.5-6.2 18.6-9.5 28.4zm-163 0c-3-8.3-6.4-15.8-8.5-23.6-5.1-20-9.6-40.1-14.4-60.1-.6-2.6-.2-5.4-4.4-6-14.6-2.2-24.9-10.3-31.5-23.4-.5-1-1.7-2.5-2.6-2.5-5.1-.2-10.1-.1-15.2-.1 1.8 54.1 24.7 97.6 76.6 115.7zm71 98.2c-4 29.5-5.6 59.4-16.4 87.7h53.5c-11-28.5-12.4-58.4-16.5-87.7h-20.6zm-60-74.1c-1.5-8.5-6.8-10.9-13.1-13.2-28.6-10-51.7-27.1-66.8-53.9-13.5-24-18-50.2-18.9-77.2-.2-4.5 2.4-6.4 6.5-6.4 6.7-.1 13.3 0 20 0 8.7 0 8.7 0 12 7.9 4.3 10.2 14.7 18 23.5 17.6.6-4.6-.8-7.5-5.6-9.5-6.1-2.5-10-7.7-11.5-14.2-.7-3-.9-6.1-1.3-9.4H77.9C79 52.1 79.4 65 81 77.9c6.3 49.6 29.9 87.2 76.4 108.5 9 4 18.5 7 28.2 10.7zM381.3 38.6c-.1 2-.2 3.5-.3 5-.6 8.7-4.7 15.5-12.6 18.9-5.1 2.2-5.4 5.4-5.2 10.1 12.1-2.4 20.1-9 24.1-20.2 1.3-3.6 3.1-6.2 7.4-6.1 8 .1 16-.1 24 .1 5 .1 6.8 2.1 6.5 7.3-.3 6-.6 12-1.2 17.9-2.6 22.7-8.4 44.4-20.9 63.9-15.9 24.8-38.8 40.2-66.2 49.5-6.9 2.4-8.2 3.8-10.2 11.9 8.4-3.1 16.5-5.6 24.2-8.9 30.9-13.2 54.4-34.3 68.1-65.4 11.6-26.3 14.6-54.1 14.4-82.4 0-.4-.4-.9-.7-1.5-17-.1-33.9-.1-51.4-.1zm-32.1 462.2c1.6-5.3-.6-6.2-4.9-6.2-59 .1-117.9.1-176.9.1-1.6 0-3.2.2-4.8.3v5.8h186.6zm-42.9-112.6H205.8v5.5h100.5v-5.5zm-86-11.5h71.4c-1.4-4.7-3.7-6.9-8.9-6.8-17.8.3-35.6.3-53.4 0-5.1 0-7.7 1.8-9.1 6.8zm36-116.6c5.7 0 11.3-.1 17 0 3.4.1 6.3-.9 6.5-4.6.2-4-2.8-5.3-6.4-5.3h-35c-3.4 0-6.2 1.2-6.2 5 0 3.7 2.7 5 6.1 5 6-.2 12-.2 18-.1z"/><path d="M347.4 59.6c-2.6 15.6-4.7 30.1-7.5 44.5-4.9 25-12.3 49.3-23.4 72.4-.8 1.6-1.5 3.7-2.9 4.6-1.6 1-4.3 1.7-5.7 1-1.5-.7-2.5-3.2-2.9-5.1-.2-1.4.8-3.1 1.5-4.6 15.9-33.4 24-69 28.5-105.5.3-2.5.5-5 1.1-7.4.7-3.2 3-5.3 6.1-4.3 2.1.6 3.7 3 5.2 4.4zm-171.3 32c4.1.2 4.9 3.3 5.7 6.5 3.3 13.2 5.9 26.6 10.3 39.5 4.8 14.3 11.2 28 17 41.9.5 1.2 1.2 2.3 1.8 3.5 1.6 3.1 1.3 6-1.9 7.7-3.2 1.6-6 .4-7.6-2.6-3.4-6.5-6.7-13-9.7-19.6-9.7-22-15.7-45.1-20.6-68.5-1.1-5.3 1-8.5 5-8.4zm79.8 142c-1.7-1.9-4.2-3.5-4.9-5.6-1-3.1 1.1-5.6 4.4-5.9 16.2-1.3 26.1-12 35.4-23.6 1.5-1.8 2.5-4.3 4.4-5.4 1.8-1 5.1-1.6 6.5-.6 1.5 1 2.6 5 1.8 6.3-11.2 16.6-23.9 31.4-45.7 33.8-.3 0-.7.1-1 .1-.2.3-.5.6-.9.9zm-78-158.5c-1.2 1.1-2.8 3.7-5 4.3-3.1.9-5.4-1.3-5.9-4.5-.7-4.6-1.4-9.2-1.7-13.9-.2-3.2 1.2-5.6 4.6-6 3.4-.4 5.5 1.4 6 4.6.8 4.6 1.2 9.2 2 15.5zm170.9-46.4c0 2.2.2 4.3 0 6.5-.4 3.2-2.2 5.3-5.6 5.2-3.4-.1-5.1-2.3-5.1-5.6 0-4 .2-8 .5-11.9.3-3.2 2.1-5.3 5.5-5.2 3.7.2 5.1 2.6 5.1 6.1v5c-.1-.1-.2-.1-.4-.1zm-93.1 440.2h-31c-5.9 0-7.7-1.8-7.7-7.8v-33.5c0-5.7 1.8-7.6 7.4-7.6 21.2 0 42.3-.1 63.5 0 5.3 0 7.2 1.9 7.2 7.3.1 11.5.1 23 0 34.5 0 5.2-1.9 7.1-7.4 7.1-10.7.1-21.4 0-32 0zm-27.6-11.2h55.7v-26.4h-55.7v26.4zm84.1-16.7c2.5 0 5.2-.7 7.4.2 2.1.8 4.8 3.2 4.9 4.9.1 1.8-2.6 5-4.4 5.2-5.4.7-11 .7-16.3 0-1.8-.2-4.4-3.5-4.3-5.3.1-1.8 2.8-4.1 4.9-4.9 2.2-.8 5.1-.1 7.8-.1zm-115.3-19.8c-2.7 0-5.6.7-7.9-.2-2-.8-4.4-3.1-4.7-5-.2-1.5 2.5-4.7 4.1-4.9 5.6-.6 11.3-.6 16.8 0 1.7.2 4.4 3.4 4.2 4.8-.3 1.9-2.7 4.3-4.7 5.1-2.2.9-5.2.2-7.8.2zm-3.8 43.7c1.2 0 2.3-.1 3.5 0 3.3.2 5.4 1.8 5.5 5.2.1 3.5-2.1 5.1-5.3 5.4-2.3.2-4.7.2-7 0-3.4-.3-5.9-1.8-5.7-5.5.1-3.7 2.6-5.1 6-5.2 1 .1 2 .1 3 .1z"/></svg>